<?xml version="1.0" encoding="utf-8"?>
<!-- Generator: Adobe Illustrator 24.1.0, SVG Export Plug-In . SVG Version: 6.00 Build 0)  -->
<svg version="1.1" id="stream_x5F_logo" xmlns="http://www.w3.org/2000/svg" xmlns:xlink="http://www.w3.org/1999/xlink" x="0px"
	 y="0px" viewBox="0 0 809.5 489.2" style="enable-background:new 0 0 809.5 489.2;" xml:space="preserve">
<style type="text/css">
	.st0{fill:none;stroke:#CC3B33;stroke-width:40;stroke-miterlimit:10;}
	.st1{fill:none;stroke:#399836;stroke-width:40;stroke-miterlimit:10;}
	.st2{fill:none;stroke:#8E59A0;stroke-width:40;stroke-miterlimit:10;}
	.st3{fill:none;stroke:#425FA9;stroke-width:40;stroke-miterlimit:10;}
	.st4{fill:none;}
</style>
<g>
	<path class="st0" d="M18.4,33.3c53.5,41.9,139.1,91.6,248.6,78.6c106.8-12.7,157.1-75.6,264.3-89.4c62.7-8.1,155-0.6,266.2,84.2"/>
	<path class="st1" d="M18.4,151.7c53.5,41.9,139.1,91.6,248.6,78.6c106.8-12.7,157.1-75.6,264.3-89.4c62.7-8.1,155-0.6,266.2,84.2"
		/>
	<path class="st2" d="M18.4,270.1c53.5,41.9,139.1,91.6,248.6,78.6c106.8-12.7,157.1-75.6,264.3-89.4c62.7-8.1,155-0.6,266.2,84.2"
		/>
	<path class="st3" d="M18.4,388.5c53.5,41.9,139.1,91.6,248.6,78.6c106.8-12.7,157.1-75.6,264.3-89.4c62.7-8.1,155-0.6,266.2,84.2"
		/>
	<path id="SVGID_x5F_1_x5F_" class="st4" d="M18.4,115.4c53.5,41.9,139.1,91.6,248.6,78.6c106.8-12.7,157.1-75.6,264.3-89.4
		c62.7-8.1,155-0.6,266.2,84.2"/>
	<text>	<textPath  xlink:href="#SVGID_x5F_1_x5F_" startOffset="0%">
<tspan  style="fill:#575756; font-family:'JuliaMono-Regular'; font-size:60px;">011101011010100101110101</tspan>	</textPath>
</text>
	<path id="SVGID_x5F_2_x5F_" class="st4" d="M18.4,236.3c53.5,41.9,139.1,91.6,248.6,78.6c106.8-12.7,157.1-75.6,264.3-89.4
		c62.7-8.1,155-0.6,266.2,84.2"/>
	<text>	<textPath  xlink:href="#SVGID_x5F_2_x5F_" startOffset="0%">
<tspan  style="fill:#575756; font-family:'JuliaMono-Regular'; font-size:60px;">1010111010010101100010</tspan>	</textPath>
</text>
	<path id="SVGID_x5F_3_x5F_" class="st4" d="M18.4,352.9c53.5,41.9,139.1,91.6,248.6,78.6c106.8-12.7,157.1-75.6,264.3-89.4
		c62.7-8.1,155-0.6,266.2,84.2"/>
	<text>	<textPath  xlink:href="#SVGID_x5F_3_x5F_" startOffset="0%">
<tspan  style="fill:#575756; font-family:'JuliaMono-Regular'; font-size:60px;">0001010100001010111011</tspan>	</textPath>
</text>
</g>
</svg>
